<svg xmlns="http://www.w3.org/2000/svg" xmlns:xlink="http://www.w3.org/1999/xlink" id="Layer_1" x="0" y="0" version="1.1" viewBox="-209 301 192 192" xml:space="preserve" style="enable-background:new -209 301 192 192"><style type="text/css">.st0{fill:#0d47a1}.st1{fill:#f52757}.st2{fill:#3dabfc}.st3{fill:#1e88e5}</style><path d="M-49,333h12c6.6,0,12,5.4,12,12v104c0,6.6-5.4,12-12,12h-12V333z" class="st0"/><path d="M-52,327c-0.2,0-0.3,0-0.5,0l-60.5,6v128l60.5,6c0.2,0,0.3,0,0.5,0c7,0,7-5.4,7-12V339C-45,332.4-45,327-52,327	z" class="st1"/><path d="M-70,321c-0.1,0-0.2,0-0.4,0l-42.6,12v128l42.6,12c0.1,0,0.2,0,0.4,0c5,0,5-5.4,5-12V333	C-65,326.4-65,321-70,321z" class="st2"/><path d="M-189,333c-6.6,0-12,5.4-12,12v104c0,6.6,5.4,12,12,12h76V333H-189z" class="st3"/></svg>